<?xml version="1.0" encoding="UTF-8" standalone="no"?>
<!-- Created with Inkscape (http://www.inkscape.org/) -->

<svg
   xmlns:dc="http://purl.org/dc/elements/1.1/"
   xmlns:cc="http://creativecommons.org/ns#"
   xmlns:rdf="http://www.w3.org/1999/02/22-rdf-syntax-ns#"
   xmlns:svg="http://www.w3.org/2000/svg"
   xmlns="http://www.w3.org/2000/svg"
   xmlns:sodipodi="http://sodipodi.sourceforge.net/DTD/sodipodi-0.dtd"
   xmlns:inkscape="http://www.inkscape.org/namespaces/inkscape"
   id="svg2"
   version="1.1"
   inkscape:version="0.91 r13725"
   width="52.211113mm"
   height="52.211113mm"
   xml:space="preserve"
   sodipodi:docname="catalogIcon-elk.svg"><sodipodi:namedview
     pagecolor="#ffffff"
     bordercolor="#666666"
     borderopacity="1"
     objecttolerance="10"
     gridtolerance="10"
     guidetolerance="10"
     inkscape:pageopacity="0"
     inkscape:pageshadow="2"
     inkscape:window-width="1366"
     inkscape:window-height="768"
     id="namedview4"
     showgrid="false"
     inkscape:zoom="2.8284271"
     inkscape:cx="108.90797"
     inkscape:cy="54.513155"
     inkscape:window-x="0"
     inkscape:window-y="0"
     inkscape:window-maximized="0"
     inkscape:current-layer="g10"
     fit-margin-top="0"
     fit-margin-left="0"
     fit-margin-right="0"
     fit-margin-bottom="0"
     units="mm" /><metadata
     id="metadata8"><rdf:RDF><cc:Work
         rdf:about=""><dc:format>image/svg+xml</dc:format><dc:type
           rdf:resource="http://purl.org/dc/dcmitype/StillImage" /><dc:title></dc:title></cc:Work></rdf:RDF></metadata><defs
     id="defs6"><clipPath
       id="clipPath18"
       clipPathUnits="userSpaceOnUse"><path
         inkscape:connector-curvature="0"
         id="path20"
         d="M 0,2494.84 0,0 l 1804.34,0 0,2494.84 -1804.34,0 z" /></clipPath></defs><g
     transform="matrix(1.25,0,0,-1.25,0.323895,310.33655)"
     inkscape:label="ink_ext_XXXXXX"
     inkscape:groupmode="layer"
     id="g10"><path
       style="fill:none;fill-rule:evenodd;stroke:#000000;stroke-width:0.80000001px;stroke-linecap:butt;stroke-linejoin:miter;stroke-opacity:1"
       d="m 24.140884,189.06923 c 0,1.06667 0,2.13334 0,3.2 0,1.2 0,2.4 0,3.6 0,0.20917 0.05259,1.49483 0,1.6 -0.08433,0.16866 -0.315673,0.23135 -0.4,0.4 -0.119257,0.23852 0.188562,0.61144 0,0.8 -0.827614,0.82762 0.03235,-1.2647 -0.8,0.4 -0.05963,0.11926 0.05963,0.28075 0,0.4 -0.08433,0.16866 -0.295405,0.24311 -0.4,0.4 -0.16538,0.24807 -0.189182,0.58919 -0.4,0.8 -0.05931,0.0593 -2.298944,1.17979 -2.4,1.2 -0.392232,0.0785 -0.807768,-0.0784 -1.2,0 -0.292353,0.0585 -0.510759,0.32769 -0.8,0.4 -0.258705,0.0647 -0.533334,0 -0.8,0 -0.266666,0 -0.533334,0 -0.8,0 -0.533334,0 -1.066666,0 -1.6,0 -0.266666,0 -0.547018,-0.0843 -0.8,0 -0.178886,0.0596 -0.221114,0.34038 -0.4,0.4 -0.252982,0.0843 -0.533334,0 -0.8,0 -0.133334,0 -0.280743,-0.0596 -0.4,0 -0.168655,0.0843 -0.221114,0.34038 -0.4,0.4 -0.505965,0.16866 -1.08259,-0.12935 -1.6,0 -0.2892408,0.0723 -0.5171576,0.30572 -0.8,0.4 -0.1264912,0.0422 -0.2807432,-0.0596 -0.4,0 -0.4299872,0.215 -0.7439296,0.64798 -1.2,0.8 -0.3794733,0.1265 -0.8077678,-0.0784 -1.2,0 -1.0834496,0.21669 -0.6573096,0.63439 -1.6,1.2 -1.3445006,0.80671 -0.920699,-0.009 -2,0.8 -0.3016989,0.22628 -0.5333334,0.53334 -0.8,0.8 -0.1333334,0.13334 -0.2313452,0.31568 -0.4,0.4 -0.119257,0.0596 -0.2933334,-0.08 -0.4,0 -0.60339776,0.45255 -1.06666666,1.06667 -1.6,1.6 -0.13333334,0.13334 -0.26666666,0.26667 -0.4,0.4 -0.13333334,0.13334 -0.34037152,0.22112 -0.4,0.4 -0.084327,0.25299 0.0843274,0.54702 0,0.8 -0.059629,0.17889 -0.3156726,0.23135 -0.4,0.4 -0.059629,0.11926 0,0.26667 0,0.4 0,0.26667 0.064676,0.5413 0,0.8 -0.07231,0.28925 -0.3415294,0.50765 -0.4,0.8 -0.078446,0.39224 0,0.8 0,1.2 0,0.8 0,1.6 0,2.4 0,0.53334 0,1.06667 0,1.6 0,0.13334 -0.119257,0.34038 0,0.4 0.491709,0.24586 1.08957234,0.19583 1.6,0.4 0.17507524,0.07 0.21706818,0.35427 0.4,0.4 0.388057,0.097 0.8,0 1.2,0 0.5333334,0 1.0739233,-0.0877 1.6,0 3.1155418,0.51926 -1.3558926,0.4 1.6,0.4 0.1333334,0 0.280743,0.0596 0.4,0 0.1686548,-0.0843 0.2666666,-0.26666 0.4,-0.4 0.5312866,-0.53128 1.0104484,-0.84179 1.2,-1.6 0.064676,-0.2587 0,-0.53333 0,-0.8 0,-0.26666 0,-0.53333 0,-0.8 0,-0.13333 -0.042164,-0.2735 0,-0.4 0.094281,-0.28284 0.3276898,-0.51075 0.4,-0.8 0.064676,-0.2587 0,-0.53333 0,-0.8 0,-0.13333 0.1333334,-0.4 0,-0.4 -0.1333334,0 0,0.26667 0,0.4 0,0.53334 0,1.06667 0,1.6 0,0.93334 0,1.86667 0,2.8 0,0.26667 -0.099037,0.55241 0,0.8 0.2214546,0.55364 0.4422291,1.12298 0.8,1.6 0.08,0.10667 0.2666664,0 0.4,0 0.5333336,0 1.0666664,0 1.6,0 0.1333336,0 0.305719,0.0943 0.4,0 0.09428,-0.0943 -0.09428,-0.30571 0,-0.4 0.210818,-0.21081 0.589182,-0.18918 0.8,-0.4 0.09428,-0.0943 -0.04216,-0.2735 0,-0.4 1.240175,-2.48035 0.05093,0.19629 0.4,-1.2 0.204524,-0.81809 0.595476,-1.5819 0.8,-2.4 0.164893,-0.65957 0.213226,-1.34628 0.4,-2 0.08191,-0.28667 0.305719,-0.51715 0.4,-0.8 0.07969,-0.23905 -0.206971,-0.8 0.4,-0.8 0.133334,0 -0.05963,0.28075 0,0.4 0.613913,1.22783 1.349179,2.39134 2,3.6 0.991479,1.84132 1.868677,3.90151 3.6,5.2 0.106666,0.08 0.266666,0 0.4,0 0.266666,0 0.533334,0 0.8,0 0.133334,0 0.266666,0 0.4,0 0.133334,0 0.280743,0.0596 0.4,0 0.750457,-0.37522 0.171046,-0.51313 0.4,-1.2 0.05963,-0.17888 0.315673,-0.23134 0.4,-0.4 0.05963,-0.11925 0,-0.26666 0,-0.4 0,-0.26666 0,-0.53333 0,-0.8 0,-2.13333 0,-4.26666 0,-6.4 0,-0.66666 0,-1.33333 0,-2 0,-0.26666 -0.238514,-0.91925 0,-0.8 0.42469,0.21235 1.33016,2.26032 1.6,2.8 0.133334,0.26667 0.15193,0.63463 0.4,0.8 0.22188,0.14792 0.547018,-0.0843 0.8,0 0.178886,0.0596 0.231345,0.31568 0.4,0.4 0.517946,0.25898 0.743304,-0.45982 0.8,-0.8 0.08768,-0.52607 -0.104595,-1.07702 0,-1.6 0.03698,-0.1849 0.266666,-0.26666 0.4,-0.4 0.133334,-0.13333 0.315673,-0.23134 0.4,-0.4 0.05963,-0.11925 -0.09428,-0.30571 0,-0.4 0.09428,-0.0943 0.266666,0 0.4,0 0.133334,-0.26666 0.305719,-0.51715 0.4,-0.8 0.04217,-0.12649 -0.05963,-0.28074 0,-0.4 0.08433,-0.16865 0.340371,-0.22111 0.4,-0.4 0.08433,-0.25298 -0.119257,-0.56148 0,-0.8 0.05963,-0.11925 0.280743,0.0596 0.4,0 0.33731,-0.16865 0.442229,-0.68074 0.8,-0.8 0.252982,-0.0843 0.541295,0.0647 0.8,0 0.289241,-0.0723 0.505914,-0.35098 0.8,-0.4 0.526077,-0.0877 1.066666,0 1.6,0 0.133334,0 0.270648,0.0323 0.4,0 0.409048,-0.10226 0.786551,-0.31731 1.2,-0.4 0.433173,-0.0866 2.37241,0 2.8,0 0.230479,0 1.85421,-0.0729 2,0 1.219825,0.60992 -0.731578,0.31711 1.2,0.8 0.258705,0.0647 0.533334,0 0.8,0 0.933334,0 1.866666,0 2.8,0 0.533334,0 1.08259,-0.12935 1.6,0 0.578482,0.14463 1.034314,0.61144 1.6,0.8 0.252982,0.0843 0.680743,-0.23851 0.8,0 0.362706,0.72542 0.0062,1.69103 0.4,2.4 0.03266,0.0588 2.452861,1.86115 2.8,2 0.247594,0.099 0.561486,-0.11925 0.8,0 0.33731,0.16866 0.486214,0.59081 0.8,0.8 0.496139,0.33076 1.13438,0.42751 1.6,0.8 0.23281,0.18625 0.189182,0.58919 0.4,0.8 0.09428,0.0943 0.280743,-0.0596 0.4,0 0.168655,0.0843 0.231345,0.31568 0.4,0.4 0.119257,0.0596 0.280743,-0.0596 0.4,0 0.33731,0.16866 0.486214,0.59081 0.8,0.8 0.496139,0.33076 1.103861,0.46925 1.6,0.8 0.156893,0.1046 0.221114,0.34038 0.4,0.4 0.220511,0.0735 2.060542,0 2.4,0 0.4,0 0.8,0 1.2,0 0.4,0 0.811943,0.097 1.2,0 0.182932,-0.0457 0.243107,-0.2954 0.4,-0.4 0.24807,-0.16537 0.589182,-0.18918 0.8,-0.4 0.09428,-0.0943 -0.04217,-0.2735 0,-0.4 -0.724342,-1.6735 0.631345,-0.46269 0.8,-0.8 0.02062,-0.0412 0,-2.36065 0,-2.4 0,-0.26666 0,-0.53333 0,-0.8 0,-0.13333 0,-0.53333 0,-0.4 0,0.93334 0,1.86667 0,2.8 0,0.26667 0,0.53334 0,0.8 0,0.13334 -0.07396,0.28906 0,0.4 0.20919,0.31379 0.631345,0.46269 0.8,0.8 0.119257,0.23852 -0.188562,0.61144 0,0.8 0.09534,0.0953 1.341547,0 1.6,0 0.266666,0 0.547018,0.0843 0.8,0 0.682842,-0.22761 0.266666,-0.4 0.4,-0.8 0.917993,-2.75397 -0.05496,1.63968 0.4,-2 0.08433,-0.67461 0.266666,-1.33333 0.4,-2 0.133334,-1.06666 0.28129,-2.1316 0.4,-3.2 0.01473,-0.13251 -0.09428,-0.30571 0,-0.4 0.09428,-0.0943 0.340371,-0.11925 0.4,0 1.023275,0.76735 0.01709,1.93845 0.4,2.8 0.723676,1.62828 1.345905,2.14591 2.4,3.2 0.133334,0.13334 0.221114,0.34038 0.4,0.4 0.252982,0.0843 0.533334,0 0.8,0 0.133334,0.26667 0.15193,0.63463 0.4,0.8 0.06654,0.0444 2.675655,-0.0207 2.8,0 0.4159,0.0693 0.786551,0.31731 1.2,0.4 0.261488,0.0523 0.533334,0 0.8,0 0.4,0 0.807768,0.0785 1.2,0 0.292352,-0.0585 0.523184,-0.28927 0.8,-0.4 0.39148,-0.15659 0.82288,-0.21143 1.2,-0.4 0.392536,-0.19627 0.6608,-0.8868 0.8,-1.2 0.412408,-0.92791 0.93836,-1.81885 1.2,-2.8 0.780296,-2.92611 0.15392,-3.44705 0.4,-6.4 0.04568,-0.54784 0.292184,-1.06092 0.4,-1.6 0.02616,-0.13074 0,-0.26666 0,-0.4 0,-0.4 0,-0.8 0,-1.2 0,-0.4 0,-0.8 0,-1.2 0,-0.4 0.06576,-0.80544 0,-1.2 -0.206584,-1.23951 -0.751632,-1.56699 -1.2,-2.8 -0.04776,-0.13126 -1.347832,-4.90197 -1.6,-5.2 -0.02496,-0.0295 -3.827108,-3.35038 -5.2,-3.6 -0.918278,-0.16695 -1.869416,0.0716 -2.8,0 -0.808646,-0.0622 -1.59299,-0.31929 -2.4,-0.4 -0.530686,-0.0531 -1.066666,0 -1.6,0 -0.933334,0 -1.866666,0 -2.8,0 -1.066666,0 -2.133334,0 -3.2,0 -0.533334,0 -1.070785,-0.0662 -1.6,0 -0.545502,0.0682 -1.054498,0.33182 -1.6,0.4 -0.529215,0.0662 -1.087187,-0.14651 -1.6,0 -0.462243,0.13207 -0.74393,0.64798 -1.2,0.8 -0.379474,0.1265 -0.8,0 -1.2,0 -0.266666,0 -0.561486,-0.11925 -0.8,0 -0.33731,0.16866 -0.44985,0.65994 -0.8,0.8 -1.576161,0.63047 -0.828722,-0.0144 -1.6,-0.4 -0.119257,-0.0596 -0.266666,0 -0.4,0 -0.533334,0 -1.066666,0 -1.6,0 -0.133334,0 -0.305719,0.0943 -0.4,0 -0.09428,-0.0943 0.07396,-0.28906 0,-0.4 -0.20919,-0.31378 -0.631345,-0.46269 -0.8,-0.8 -0.04912,-0.0982 0,-2.56162 0,-2.8 0,-0.13333 -0.09428,-0.30571 0,-0.4 0.09428,-0.0943 0.305719,0.0943 0.4,0 0.09428,-0.0943 -0.04217,-0.2735 0,-0.4 0.09428,-0.28284 0.32769,-0.51075 0.4,-0.8 0.09701,-0.38805 0,-0.8 0,-1.2 0,-0.8 0,-1.6 0,-2.4 0,-0.4 0,-0.8 0,-1.2 0,-0.26666 0.119257,-0.56148 0,-0.8 -0.168655,-0.33731 -0.573726,-0.4983 -0.8,-0.8 -0.979802,-1.3064 0.330884,-0.37529 -1.2,-1.6 -1.677956,-1.34236 -0.792566,-0.32254 -2.8,-1.6 -0.96766,-0.61578 -1.951306,-1.22846 -2.8,-2 -3.033388,-2.75762 -0.42518,-1.17949 -2.4,-4.8 -0.501686,-0.91976 -2.38405,-2.16537 -3.2,-2.8 -3.18446,-2.4768 -0.7677,-1.02708 -3.2,-2 -0.810829,-0.32433 -1.035176,-0.67939 -2,-0.8 -0.661518,-0.0827 -1.335027,0.0475 -2,0 -6.424555,-0.45889 -1.379082,-0.4 -5.2,-0.4 -0.266666,0 -0.547018,-0.0843 -0.8,0 -0.178886,0.0596 -0.266666,0.26667 -0.4,0.4 -0.266666,0.26667 -0.573726,0.49831 -0.8,0.8 -0.645022,0.86003 -1.449573,4.1983 -1.6,4.8 -0.824844,3.29938 0.02125,0.72565 -0.8,3.6 -0.231665,0.81083 -0.661366,1.5682 -0.8,2.4 -0.06576,0.39456 0,0.8 0,1.2 0,1.06667 0,2.13334 0,3.2 0,0.66667 0,1.33334 0,2 0,0.66667 -0.09428,1.34004 0,2 0.04216,0.29515 0.34153,0.50765 0.4,0.8 0.130744,0.65373 -0.16169,1.35324 0,2 0.07231,0.28925 0.32769,0.51076 0.4,0.8 0.06468,0.25871 -0.08433,0.54702 0,0.8 0.494281,1.48285 0.4,-0.48758 0.4,0.8 0,0.53334 0,1.06667 0,1.6 0,0.13334 -0.03234,0.27065 0,0.4 0.102262,0.40905 0.297738,0.79096 0.4,1.2 0.0819,0.32759 -0.134887,0.8 0,0.8 0.133334,0 -0.09428,-0.30571 0,-0.4 0.471405,-0.4714 1.066666,-0.8 1.6,-1.2 z"
       id="path4138"
       inkscape:connector-curvature="0" /><path
       style="fill:none;fill-rule:evenodd;stroke:#000000;stroke-width:0.80000001px;stroke-linecap:butt;stroke-linejoin:miter;stroke-opacity:1"
       d="m 51.740884,181.06923 c 1.720308,-1.11081 3.63483,-1.2532 5.6,-1.6 6.02007,-1.06236 2.735083,-0.8 8.8,-0.8 l 2.8,0 c 0.8,0 1.610885,-0.13151 2.4,0 0.8318,0.13864 1.5682,0.66137 2.4,0.8 0.789115,0.13152 1.61183,-0.13707 2.4,0 2.294131,0.39898 4.535728,1.05658 6.8,1.6 1.069136,0.2566 2.173792,0.40531 3.2,0.8 0.72564,0.2791 1.333336,0.8 2,1.2 2.019576,1.21175 2.164448,1.36821 4.4,2.4 10.921136,5.04053 -4.940912,-2.16461 5.6,1.6 1.012344,0.36156 1.766392,1.30469 2.799996,1.6 0.89743,0.25641 1.86667,0 2.8,0 l 3.2,0 c 0.66667,0 1.33848,0.0827 2,0 0.41839,-0.0523 0.8,-0.26666 1.2,-0.4 1.76569,-0.58856 0.82288,-0.21143 2.8,-1.2 0.53334,-0.26666 1.02887,-0.62865 1.6,-0.8 1.88677,-0.56602 6.36716,-0.59452 7.6,-0.8 0.70826,-0.11804 1.30961,-0.60274 2,-0.8 0.25641,-0.0733 0.56149,0.11926 0.8,0 1.69021,0.20838 0.30387,-1.26924 0.8,-1.6 0.33283,-0.22188 0.82861,0.14856 1.2,0 0.35016,-0.14006 0.43739,-0.69639 0.8,-0.8 6.38116,-1.82318 -5.30812,7.80542 10,-2.4 2.93437,-1.95624 2.8,-3.39023 2.8,-5.6 0,-0.13333 -0.0202,-0.26821 0,-0.4 0.24665,-1.6032 0.6302,-3.18684 0.8,-4.8 0.0977,-0.9282 0,-1.86666 0,-2.8 l 0,-4.8 c 0,-1.73333 -0.0911,-3.46905 0,-5.2 0.0426,-0.80991 0.34941,-1.59054 0.4,-2.4 0.0832,-1.33073 0,-2.66666 0,-4 0,-0.66666 -0.0736,-1.33741 0,-2 0.2234,-2.01061 1.51654,-3.66614 2,-5.6 0.71556,-2.86221 0.12267,-1.41333 0.8,-4.8 0.21564,-1.07814 0.64451,-2.11155 0.8,-3.2 0.11314,-0.79196 0,-1.6 0,-2.4 l 0,-4 0,-4 0,-1.2 c 0,-0.26666 0.0843,-0.54701 0,-0.8 -0.0596,-0.17888 -0.34036,-0.22111 -0.4,-0.4 -0.0843,-0.25297 0,-0.53333 0,-0.8 0,-0.3998 0.0856,-1.65778 0,-2 -0.10226,-0.40905 -0.31731,-0.78655 -0.4,-1.2 -0.10459,-0.52297 0.16866,-1.09403 0,-1.6 -0.0596,-0.17888 -0.2954,-0.2431 -0.4,-0.4 -0.16537,-0.24806 -0.28927,-0.52317 -0.4,-0.8 -0.15659,-0.39148 -0.26666,-0.8 -0.4,-1.2 -0.26666,-0.53333 -0.56511,-1.05193 -0.8,-1.6 -0.16608,-0.38754 -0.29773,-0.79095 -0.4,-1.2 -0.0323,-0.12935 0.0596,-0.28074 0,-0.4 -0.0843,-0.16865 -0.2954,-0.2431 -0.4,-0.4 -0.16537,-0.24806 -0.18918,-0.58917 -0.4,-0.8 l -1.2,-0.8 c -0.13333,0 -0.28074,0.0596 -0.4,0 -0.16865,-0.0843 -0.23134,-0.31567 -0.4,-0.4 -0.11925,-0.0596 -0.26666,0 -0.4,0 -1.00924,0 -1.33562,-0.0515 -2.4,0.8 -0.2328,0.18625 -0.22111,0.56149 -0.4,0.8 -0.22627,0.30171 -0.63134,0.4627 -0.8,0.8 -0.11925,0.23852 0,0.53334 0,0.8 l 0,3.6 0,0.8 c 0,0.4 -0.097,0.81195 0,1.2 0.0458,0.18294 0.34037,0.22112 0.4,0.4 0.0843,0.25299 -0.0843,0.54703 0,0.8 0.0596,0.17889 0.34037,0.22112 0.4,0.4 0.0843,0.25299 0,0.53334 0,0.8 l 0,0.8 c 0,0.93334 0.0845,1.87051 0,2.8 -0.15048,1.65532 -0.51399,4.39931 -1.2,6 -0.23488,0.54807 -0.49321,1.0887 -0.8,1.6 -0.097,0.1617 -0.34036,0.22112 -0.4,0.4 -0.0843,0.25299 0.0646,0.5413 0,0.8 -0.0723,0.28924 -0.32768,0.51076 -0.4,0.8 -0.1967,0.78683 -0.22406,1.60828 -0.4,2.4 -0.0915,0.4116 -0.34036,0.7826 -0.4,1.2 -0.0754,0.52798 0.0754,1.07203 0,1.6 -0.11925,0.8348 -0.59548,1.58191 -0.8,2.4 -0.097,0.38806 0.097,0.81195 0,1.2 -0.0723,0.28924 -0.34152,0.50765 -0.4,0.8 -0.0785,0.39223 0,0.8 0,1.2 l 0,3.2 c 0,3.13752 0.0662,0.13849 -0.4,4.8 -0.22322,2.23226 0.36884,-0.70649 -0.4,1.6 -0.0422,0.1265 0.0943,0.30572 0,0.4 -0.0943,0.0943 -0.30572,0.0943 -0.4,0 -0.002,-0.002 0.003,-1.1846 0,-1.2 -0.0827,-0.41345 -0.3477,-0.78161 -0.4,-1.2 -0.0827,-0.66151 0,-1.33333 0,-2 l 0,-1.6 c 0,-1.22292 -0.22636,-3.14726 0.4,-4.4 1.02436,-2.04869 0.76325,0.62053 1.2,-2 0.0658,-0.39455 -0.0658,-0.80544 0,-1.2 0.0693,-0.41589 0.33068,-0.78409 0.4,-1.2 0.0658,-0.39455 0,-0.8 0,-1.2 0.13334,-0.93333 0.23135,-1.87239 0.4,-2.8 0.29503,-1.62264 0.87656,-3.18278 1.2,-4.8 0.0523,-0.26149 -0.0646,-0.54129 0,-0.8 0.0723,-0.28924 0.30572,-0.51715 0.4,-0.8 0.0422,-0.12649 0,-0.26666 0,-0.4 l 0,-0.8 0,-2 c 0,-1.94005 0.008,-3.15854 -0.4,-5.2 -0.41617,-2.08088 -0.26666,-0.4 -0.8,-2 -0.12648,-0.37947 0.12649,-0.82052 0,-1.2 -0.0596,-0.17888 -0.31567,-0.23134 -0.4,-0.4 -0.0596,-0.11925 0,-0.26666 0,-0.4 -0.13333,-0.26666 -0.23462,-0.55193 -0.4,-0.8 -0.10459,-0.15689 -0.31567,-0.23134 -0.4,-0.4 -0.0596,-0.11925 0.0495,-0.2762 0,-0.4 -0.22145,-0.55363 -0.63618,-1.02665 -0.8,-1.6 -0.10988,-0.38461 0.12649,-0.82052 0,-1.2 -0.0422,-0.12649 -0.35784,0.1265 -0.4,0 -0.12648,-0.37947 0.17889,-0.84222 0,-1.2 -0.13333,-0.26666 -0.55192,-0.23461 -0.8,-0.4 -0.31378,-0.20918 -0.44223,-0.68074 -0.8,-0.8 -0.25298,-0.0843 -0.53333,0 -0.8,0 -0.26666,0 -0.54701,-0.0843 -0.8,0 -0.17888,0.0596 -0.2431,0.29541 -0.4,0.4 -0.24807,0.16539 -0.67506,0.12931 -0.8,0.4 -1.2,2.6 -1.4,4.7 -2.4,7.2 -1.40253,3.50634 -0.15679,-0.0864 -1.6,2.8 -0.18856,0.37713 -0.28416,0.79459 -0.4,1.2 -0.57178,2.00123 -1.49016,6.91351 -1.6,7.6 -0.2117,1.32316 -0.19624,2.6756 -0.4,4 -0.12822,0.83347 -0.59548,1.58191 -0.8,2.4 -0.0855,0.34222 0,1.6002 0,2 l 0,2.8 0,2 c 0,0.13334 0.0219,0.26848 0,0.4 -0.53732,3.22391 0.11589,1.04549 -1.2,2.8 -0.35776,0.47703 -0.46924,1.10387 -0.8,1.6 -0.34472,0.5171 -1.59056,1.43623 -2,1.6 -0.24759,0.099 -0.54129,-0.0646 -0.8,0 -0.28924,0.0723 -0.51332,0.3181 -0.8,0.4 -3.13387,0.89539 -0.8409,0.0934 -3.6,0.4 -7.47676,0.83075 1.78512,-0.0309 -3.2,0.8 -0.39456,0.0658 -0.8,0 -1.2,0 -0.26666,0 -0.54701,-0.0843 -0.8,0 -0.56568,0.18857 -1.03431,0.61144 -1.6,0.8 -0.25298,0.0843 -0.53333,0 -0.8,0 l -1.2,0 -2.399996,0 -4.8,0 c -0.666664,0 -1.340032,0.0943 -2,0 -0.544224,-0.0778 -1.057736,-0.30961 -1.6,-0.4 -0.26304,-0.0438 -0.533336,0 -0.8,0 -0.662352,0 -2.258168,0.0903 -2.8,0 -0.415904,-0.0693 -0.7826,-0.34037 -1.2,-0.4 -0.527976,-0.0754 -1.066664,0 -1.6,0 l -4.8,0 -2,0 -0.4,0 c -0.133334,0 -0.280743,0.0596 -0.4,0 -0.168655,-0.0843 -0.243107,-0.2954 -0.4,-0.4 -0.201437,-0.88126 -0.822876,-0.21143 -1.2,-0.4 -0.168655,-0.0843 -0.231345,-0.31567 -0.4,-0.4 -0.238514,-0.11925 -0.547018,0.0843 -0.8,0 -0.282842,-0.0943 -0.507647,-0.34153 -0.8,-0.4 -0.392232,-0.0785 -0.805442,0.0658 -1.2,0 -0.4159,-0.0693 -0.786551,-0.3173 -1.2,-0.4 -0.261488,-0.0523 -0.561486,0.11926 -0.8,0 -0.119257,-0.0596 0,-0.26666 0,-0.4 0,-0.13333 -0.09428,-0.30572 0,-0.4 0.09428,-0.0943 0.387929,0.13279 0.4,0 0.132786,-1.46064 0.06976,-2.93499 0,-4.4 -0.06374,-1.33846 -0.316414,-2.66262 -0.4,-4 -0.0499,-0.79844 0,-1.6 0,-2.4 l 0,-6.4 0,-6.8 c 0,-1.33333 -0.08317,-2.66926 0,-4 0.298471,-4.77553 1.225995,-0.16604 0.4,-7.6 -0.07929,-0.71362 -0.58884,-1.31373 -0.8,-2 -2.08954,-6.791 0.727383,-0.19618 -2.4,-5.2 -0.223467,-0.35754 -0.147018,-0.86269 -0.4,-1.2 -0.178886,-0.23851 -0.533334,-0.26666 -0.8,-0.4 -0.984334,-0.49217 -1.077531,-0.61107 -2.4,-0.8 -0.672934,-0.0961 -1.689954,0 -2.4,0 -0.168265,0 -2.28101,-0.0595 -2.4,0 -0.661484,0.33075 -0.28177,0.32708 -0.4,0.8 -0.442211,1.76885 -0.248257,0.62065 -0.8,2 -0.860636,2.15159 -0.03067,0.21469 -0.4,2.8 -0.119257,0.8348 -0.63462,1.57311 -0.8,2.4 -0.0523,0.26149 0.03771,0.53602 0,0.8 -0.09615,0.67304 -0.303852,1.32697 -0.4,2 -0.03771,0.26399 0.0523,0.53851 0,0.8 -0.08269,0.41345 -0.353438,0.78095 -0.4,1.2 -0.08835,0.79511 0,1.6 0,2.4 l 0,1.6 0,7.2 0,5.2 0,2 c 0,0.26285 0.07522,0.97432 0,1.2 -0.09428,0.28285 -0.305719,0.51716 -0.4,0.8 -0.04217,0.1265 0.05963,0.28075 0,0.4 -0.08433,0.16866 -0.315673,0.23135 -0.4,0.4 -0.119257,0.23852 0.08433,0.54703 0,0.8 -0.09428,0.28285 -0.32769,0.51076 -0.4,0.8 -0.06467,0.25871 0,0.53334 0,0.8 l 0,2.4 0,2.8 0,0.8 c 0,0.13334 -0.133334,0.4 0,0.4 0.133334,0 0.05963,-0.51925 0,-0.4 -0.188562,0.37713 -0.297738,0.79095 -0.4,1.2 -0.03234,0.12935 0.09428,0.30572 0,0.4 -0.666862,0.66687 -0.4,-0.90563 -0.4,-1.2 l 0,-1.6 c 0,-0.93333 0.14192,-1.87752 0,-2.8 -0.128226,-0.83346 -0.533334,-1.6 -0.8,-2.4 -0.346194,-1.03857 -1.021704,-19.54341 -1.5,-20.5 -0.214994,-0.42998 -0.552662,-0.78777 -0.8,-1.2 -0.306786,-0.5113 -0.493214,-1.08869 -0.8,-1.6 -0.247338,-0.41223 -0.621458,-0.75364 -0.8,-1.2 -0.09904,-0.24759 0.07326,-0.54359 0,-0.8 -0.197256,-0.69039 -0.572942,-1.31882 -0.8,-2 -0.04217,-0.12649 0.09428,-0.30572 0,-0.4 -0.09428,-0.0943 -0.305719,0.0943 -0.4,0 -0.09428,-0.0943 0.09428,-0.30572 0,-0.4 -0.09428,-0.0943 -0.266666,0 -0.4,0 -0.4,0 -0.811943,0.097 -1.2,0 -0.182932,-0.0458 -0.221114,-0.34037 -0.4,-0.4 -1.820914,0 -0.02288,0.18857 -1.2,-0.4 -0.238514,-0.11925 -0.611438,0.18857 -0.8,0 -0.210818,-0.21081 -0.133334,-0.66666 -0.4,-0.8 -0.357771,-0.17888 -0.8,0 -1.2,0 -0.133334,0 -0.280743,-0.0596 -0.4,0 -0.168655,0.0843 -0.221114,0.34038 -0.4,0.4 -0.252982,0.0843 -0.561486,-0.11925 -0.8,0 -1.24201,0.62101 -0.630866,1.26174 -1.2,2.4 -0.168655,0.33731 -0.533334,0.53334 -0.8,0.8 -0.4,0.4 -0.753475,0.85271 -1.2,1.2 -0.758946,0.5903 0.616055,5.06439 0.428427,7.04472 -0.163499,1.72565 -1.086568,8.48902 -1.105025,8.50747 -3.430915,13.84951 2.423336,22.02336 -5.423402,27.74781 0.06818,0.54551 0.322254,1.05579 0.4,1.6 0.05657,0.39599 0.15299,2.01195 0.25,2.4 0.04574,0.18294 0.354267,0.21707 0.4,0.4 0.09701,0.38806 0,0.8 0,1.2"
       id="path4140"
       inkscape:connector-curvature="0"
       sodipodi:nodetypes="cssscssscssssssccccscccccsscsssccscscssccsccscscssccccsccccscccscsccccssscccccccccscssccccccsscccccssccscscccccccccccsccscccsccsccscsccccccccsccsccsccsccsccscccccccccscsssscssssssccscssssscssscccsccccccsccssccsssssssscsccscscccccscccsscsccsccc" /><flowRoot
       xml:space="preserve"
       id="flowRoot4142"
       style="fill:black;stroke:none;stroke-opacity:1;stroke-width:1px;stroke-linejoin:miter;stroke-linecap:butt;fill-opacity:1;font-family:sans-serif;font-style:normal;font-weight:normal;font-size:40px;line-height:125%;letter-spacing:0px;word-spacing:0px"><flowRegion
         id="flowRegion4144"><rect
           id="rect4146"
           width="167.5"
           height="76"
           x="22.5"
           y="47.500008" /></flowRegion><flowPara
         id="flowPara4148" /></flowRoot><g
       transform="matrix(2.5925182,0,0,-2.5925182,-74.954652,343.12791)"
       style="font-style:normal;font-weight:normal;font-size:40px;line-height:125%;font-family:sans-serif;letter-spacing:0px;word-spacing:0px;fill:#000000;fill-opacity:1;stroke:none;stroke-width:1px;stroke-linecap:butt;stroke-linejoin:miter;stroke-opacity:1"
       id="flowRoot4150"><path
         d="m 29.64,78.5 0,-24.76 13.88,0 0,2.8 -10.6,0 0,7.6 9.28,0 0,2.8 -9.28,0 0,8.76 11.48,0 0,2.8 -14.76,0 z"
         style="font-style:normal;font-variant:normal;font-weight:normal;font-stretch:normal;font-family:'Ubuntu Mono';-inkscape-font-specification:'Ubuntu Mono'"
         id="path4146" /><path
         d="m 64.4,75.7 0,2.8 -14.76,0 0,-24.76 3.28,0 0,21.96 11.48,0 z"
         style="font-style:normal;font-variant:normal;font-weight:normal;font-stretch:normal;font-family:'Ubuntu Mono';-inkscape-font-specification:'Ubuntu Mono'"
         id="path4148" /><path
         d="m 84.8,53.74 q -1.96,2.92 -4.32,5.8 -2.32,2.88 -5.04,5.76 1.28,1.08 2.72,2.52 1.44,1.44 2.8,3.16 1.4,1.68 2.6,3.6 1.24,1.92 2.08,3.92 l -3.72,0 q -1,-1.84 -2.16,-3.6 Q 78.6,73.14 77.28,71.62 76,70.1 74.6,68.86 73.24,67.58 71.84,66.66 l 0,11.84 -3.28,0 0,-24.76 3.28,0 0,11.04 q 2.6,-2.68 4.96,-5.6 2.4,-2.92 4.2,-5.44 l 3.8,0 z"
         style="font-style:normal;font-variant:normal;font-weight:normal;font-stretch:normal;font-family:'Ubuntu Mono';-inkscape-font-specification:'Ubuntu Mono'"
         id="path4150" /></g><path
       style="fill:none;fill-rule:evenodd;stroke:#000000;stroke-width:0.80000001px;stroke-linecap:butt;stroke-linejoin:miter;stroke-opacity:1"
       d="m 23.640884,163.56923 c 0.175527,0.002 0.28904,-0.16781 0.45,-0.2 0.09806,-0.0196 0.2,0 0.3,0 0.2,0 0.4,0 0.6,0 0.266666,0 0.535869,-0.0367 0.8,0 0.581,0.0807 0.951918,0.28676 1.5,0.35 1.084343,0.12512 0.523622,-0.0583 1.6,0.2 0.153748,0.0369 0.3,0.1 0.45,0.15 0.1,0.0334 0.204293,0.0558 0.3,0.1 0.122003,0.0563 0.22524,0.1501 0.35,0.2 0.322334,0.12894 0.509475,0.0933 0.85,0.15 0.304558,0.0508 0.906064,0.21869 1.15,0.3 0.120416,0.0402 0.248457,0.0738 0.35,0.15 0.104137,0.0781 0.161708,0.20435 0.25,0.3 0.11191,0.12124 0.237731,0.2291 0.35,0.35 0.104558,0.1126 0.191346,0.24135 0.3,0.35 0.09204,0.0921 0.2,0.16667 0.3,0.25 0.1,0.0833 0.187562,0.18442 0.3,0.25 0.729638,0.42563 -0.232746,-0.4434 0.75,0.45 0.131754,0.11978 0.159938,0.33975 0.2,0.5 0.01666,0.0666 0.03334,0.13334 0.05,0.2 0.05,0.33334 0.07421,0.67157 0.15,1.00001 0.02514,0.10894 0.104592,0.19783 0.15,0.3 0.172565,0.38827 -0.02085,-0.0334 0.05,0.25 0.06036,0.24144 0.02376,-0.002 0.1,0.15 0.0149,0.0298 -0.02357,0.0764 0,0.1 0.01178,0.0118 0.04473,-0.0158 0.05,0 0.01581,0.0474 -0.01213,0.10149 0,0.15 0.0057,0.0229 0.04428,0.0271 0.05,0.05 0.01213,0.0485 -0.0082,0.10068 0,0.15 0.0087,0.052 0.03334,0.1 0.05,0.15 0.01666,0.05 0.02385,0.10423 0.05,0.15 0.04134,0.0724 0.117174,0.1234 0.15,0.2 0.0197,0.046 -0.01857,0.10357 0,0.15 0.0175,0.0438 0.07171,0.0623 0.1,0.1 0.02236,0.0298 0.02933,0.069 0.05,0.1 0.01307,0.0196 0.03946,0.0289 0.05,0.05 0.0074,0.0149 0,0.0333 0,0.05"
       id="path4145"
       inkscape:connector-curvature="0" /></g></svg>