<svg xmlns="http://www.w3.org/2000/svg" xmlns:xlink="http://www.w3.org/1999/xlink" version="1.1" x="0px" y="0px" viewBox="0 0 76.25 112.5" enable-background="new 0 0 76.25 90" xml:space="preserve"><path d="M73.863,50.371c-1.483-1.651-3.397-2.982-5.659-3.906c1.855-4.121,2.897-8.686,2.897-13.49  C71.102,14.792,56.309,0,38.127,0C19.945,0,5.153,14.792,5.153,32.975c0,4.805,1.042,9.368,2.897,13.488  c-2.263,0.925-4.178,2.257-5.662,3.908C0.796,52.14-0.002,54.381,0,56.59c-0.003,2.534,1.044,5.081,3.077,6.91  c1.39,1.255,3.155,1.885,4.89,1.885h0.016c1.997,0.004,4.007-0.824,5.448-2.423c1.017-1.127,0.929-2.864-0.198-3.88  c-1.127-1.018-2.863-0.929-3.881,0.198c-0.37,0.407-0.858,0.605-1.369,0.609c-0.446-0.004-0.868-0.151-1.227-0.472  c-0.839-0.76-1.254-1.779-1.258-2.828c0.002-0.911,0.316-1.806,0.978-2.542c1.011-1.12,2.43-2.078,4.273-2.719  c2.13,3.167,4.796,5.943,7.864,8.204c-2.546,2.416-4.765,4.973-6.343,7.404c-1.643,2.54-2.438,5.412-2.437,8.239  c-0.003,4.98,2.459,9.879,6.959,12.787C18.918,89.338,21.322,90,23.683,90h0.012c4.16,0,8.25-2.062,10.679-5.815  c1.159-1.795,1.719-3.824,1.717-5.814c0.004-3.511-1.736-6.969-4.908-9.014c-1.52-0.983-3.25-1.463-4.944-1.461  c-2.988-0.006-5.933,1.476-7.674,4.177c-0.823,1.276-0.457,2.978,0.817,3.801c1.277,0.823,2.977,0.455,3.8-0.82  c0.696-1.081,1.854-1.659,3.057-1.662c0.675,0,1.345,0.183,1.964,0.581c1.552,1,2.388,2.672,2.392,4.398  c-0.002,0.975-0.268,1.946-0.837,2.833c-1.383,2.138-3.698,3.297-6.075,3.3c-1.345-0.001-2.688-0.369-3.908-1.154  c-2.884-1.863-4.441-4.977-4.445-8.172c0-1.808,0.499-3.62,1.556-5.257c1.43-2.232,3.848-4.926,6.608-7.407  c4.413,2.195,9.38,3.437,14.634,3.437c5.252,0,10.219-1.241,14.631-3.436c2.761,2.48,5.179,5.174,6.609,7.404  c1.056,1.637,1.552,3.449,1.555,5.259c-0.005,3.193-1.565,6.309-4.445,8.172c-1.219,0.785-2.563,1.153-3.908,1.154  c-2.38-0.003-4.694-1.162-6.073-3.302c-0.573-0.889-0.839-1.858-0.841-2.831c0.004-1.727,0.839-3.394,2.393-4.396  c0.62-0.399,1.29-0.584,1.966-0.585c1.2,0.004,2.357,0.582,3.06,1.666c0.823,1.272,2.525,1.639,3.8,0.815  c1.274-0.825,1.64-2.524,0.816-3.8c-1.747-2.698-4.69-4.182-7.676-4.176c-1.696-0.002-3.425,0.476-4.946,1.461  c-3.174,2.045-4.912,5.503-4.908,9.014c0,1.993,0.562,4.022,1.719,5.813c2.429,3.757,6.524,5.82,10.691,5.816  c2.359,0,4.764-0.662,6.89-2.034c4.499-2.912,6.963-7.807,6.96-12.789c0-2.825-0.791-5.697-2.435-8.239  c-1.579-2.431-3.798-4.988-6.344-7.403c3.068-2.261,5.734-5.036,7.865-8.203c1.841,0.64,3.259,1.597,4.272,2.718  c0.658,0.734,0.974,1.627,0.976,2.541c-0.003,1.049-0.419,2.069-1.26,2.831c-0.354,0.316-0.777,0.464-1.225,0.468  c-0.513-0.004-0.999-0.202-1.364-0.605c-1.015-1.13-2.753-1.221-3.881-0.204c-1.128,1.015-1.22,2.752-0.205,3.88  c1.44,1.603,3.452,2.429,5.45,2.426h0.016c1.734,0,3.499-0.63,4.89-1.883c2.03-1.832,3.077-4.378,3.075-6.912  C76.252,54.382,75.457,52.141,73.863,50.371z M53.348,55.852c-1.688,1.126-3.509,2.066-5.433,2.8  c-3.042,1.16-6.339,1.802-9.788,1.802c-3.45,0-6.748-0.642-9.79-1.802c-1.923-0.734-3.744-1.675-5.433-2.801  c-2.215-1.477-4.203-3.265-5.901-5.304c-1.373-1.648-2.553-3.461-3.514-5.401c-1.816-3.669-2.842-7.8-2.842-12.171  c0-15.176,12.303-27.479,27.479-27.479c15.175,0,27.478,12.303,27.478,27.479c0,4.372-1.025,8.502-2.842,12.172  c-0.961,1.94-2.142,3.753-3.515,5.4C57.551,52.587,55.563,54.375,53.348,55.852z M17.187,24.092l20.012,7.284  c-2.012,5.524-8.123,8.375-13.648,6.364C18.024,35.728,15.176,29.617,17.187,24.092z M39.051,31.376l20.012-7.284  c2.011,5.525-0.84,11.637-6.364,13.648C47.174,39.751,41.062,36.901,39.051,31.376z"/><text x="0" y="105" fill="#000000" font-size="5px" font-weight="bold" font-family="'Helvetica Neue', Helvetica, Arial-Unicode, Arial, Sans-serif">Created by Studio Fibonacci</text><text x="0" y="110" fill="#000000" font-size="5px" font-weight="bold" font-family="'Helvetica Neue', Helvetica, Arial-Unicode, Arial, Sans-serif">from the Noun Project</text></svg>