<?xml version="1.0" encoding="UTF-8" standalone="no"?>
<!-- Created with Inkscape (http://www.inkscape.org/) -->

<svg
   xmlns:dc="http://purl.org/dc/elements/1.1/"
   xmlns:cc="http://creativecommons.org/ns#"
   xmlns:rdf="http://www.w3.org/1999/02/22-rdf-syntax-ns#"
   xmlns:svg="http://www.w3.org/2000/svg"
   xmlns="http://www.w3.org/2000/svg"
   xmlns:sodipodi="http://sodipodi.sourceforge.net/DTD/sodipodi-0.dtd"
   xmlns:inkscape="http://www.inkscape.org/namespaces/inkscape"
   width="62.458389mm"
   height="43.780884mm"
   viewBox="0 0 221.30925 155.12912"
   id="svg4193"
   version="1.1"
   inkscape:version="0.91 r13725"
   sodipodi:docname="catalogIcon-apollo.svg"
   inkscape:export-filename="/home/hxr/work/guanine-frontend/img/logo-grün.png"
   inkscape:export-xdpi="128"
   inkscape:export-ydpi="128">
  <defs
     id="defs4195" />
  <sodipodi:namedview
     id="base"
     pagecolor="#ffffff"
     bordercolor="#666666"
     borderopacity="1.0"
     inkscape:pageopacity="0.0"
     inkscape:pageshadow="2"
     inkscape:zoom="4"
     inkscape:cx="101.7725"
     inkscape:cy="94.80712"
     inkscape:document-units="px"
     inkscape:current-layer="layer1"
     showgrid="false"
     inkscape:window-width="1366"
     inkscape:window-height="768"
     inkscape:window-x="0"
     inkscape:window-y="0"
     inkscape:window-maximized="0"
     fit-margin-top="0"
     fit-margin-left="0"
     fit-margin-right="0"
     fit-margin-bottom="0"
     showguides="true"
     inkscape:guide-bbox="true">
    <sodipodi:guide
       position="39.989663,64.57958"
       orientation="1,0"
       id="guide4416" />
  </sodipodi:namedview>
  <metadata
     id="metadata4198">
    <rdf:RDF>
      <cc:Work
         rdf:about="">
        <dc:format>image/svg+xml</dc:format>
        <dc:type
           rdf:resource="http://purl.org/dc/dcmitype/StillImage" />
        <dc:title />
      </cc:Work>
    </rdf:RDF>
  </metadata>
  <g
     inkscape:label="Layer 1"
     inkscape:groupmode="layer"
     id="layer1"
     transform="translate(-85.281092,-561.85274)">
    <path
       style="fill:#231f20;fill-opacity:1;fill-rule:evenodd;stroke:none;stroke-width:1px;stroke-linecap:butt;stroke-linejoin:round;stroke-opacity:1"
       d="m 134.19439,602.46895 0.5269,9.4842 c 0.2191,2.70058 -1.35148,6.296 -21.07599,18.96839 -17.414896,12.55533 -16.185286,18.35541 -18.090233,25.2912 l -0.609571,-15.63937 c 1.604188,-8.3598 9.210584,-11.3843 14.660234,-16.3259 20.73092,-13.59727 24.64447,-18.69139 24.58866,-21.77852 z"
       id="path4135"
       inkscape:connector-curvature="0"
       sodipodi:nodetypes="ccccccc" />
    <path
       style="fill:#a7a5a5;fill-opacity:1;fill-rule:evenodd;stroke:none;stroke-width:1px;stroke-linecap:butt;stroke-linejoin:round;stroke-opacity:1"
       d="m 96.859968,649.8951 c 1.32424,2.95324 6.012952,5.94428 13.700192,7.24785 l 0,10.6066 c -6.39647,-0.89131 -11.966792,-2.98489 -14.937632,-11.66726 z"
       id="path4137"
       inkscape:connector-curvature="0"
       sodipodi:nodetypes="ccccc" />
    <path
       style="fill:#231f20;fill-opacity:1;fill-rule:evenodd;stroke:none;stroke-width:1px;stroke-linecap:butt;stroke-linejoin:round;stroke-opacity:1"
       d="m 135.30889,648.12733 0,9.45755 c 9.23079,-2.38109 10.93579,-8.32977 12.37437,-12.46276 l -1.76777,-8.57367 c 0.5176,4.47374 -3.34894,8.28321 -10.6066,11.57888 z"
       id="path4141"
       inkscape:connector-curvature="0"
       sodipodi:nodetypes="ccccc" />
    <path
       style="fill:#a7a5a5;fill-opacity:1;fill-rule:evenodd;stroke:none;stroke-width:1px;stroke-linecap:butt;stroke-linejoin:round;stroke-opacity:1"
       d="m 134.60179,618.0753 c 9.21938,3.37586 12.71017,14.30002 12.9047,18.03122 l 0.26516,8.57367 c -3.71379,-15.85526 -15.15776,-17.16195 -21.61701,-19.26865 4.66032,-4.77064 5.39386,-3.74831 8.44715,-7.33624 z"
       id="path4139"
       inkscape:connector-curvature="0"
       sodipodi:nodetypes="ccccc" />
    <path
       style="fill:#4face4;fill-opacity:1;fill-rule:evenodd;stroke:none;stroke-width:1px;stroke-linecap:butt;stroke-linejoin:miter;stroke-opacity:1"
       d="m 104.28458,642.3821 4.11006,-4.11006 34.07371,0 -3.95538,3.95538 z"
       id="path4143"
       inkscape:connector-curvature="0" />
    <text
       xml:space="preserve"
       style="font-style:normal;font-weight:normal;font-size:40px;line-height:125%;font-family:sans-serif;letter-spacing:0px;word-spacing:0px;fill:#000000;fill-opacity:1;stroke:none;stroke-width:1px;stroke-linecap:butt;stroke-linejoin:miter;stroke-opacity:1"
       x="154.75433"
       y="638.22784"
       id="text4145"
       sodipodi:linespacing="125%"><tspan
         sodipodi:role="line"
         id="tspan4147"
         x="154.75433"
         y="638.22784" /></text>
    <path
       style="fill:#231e20;fill-rule:evenodd;stroke:none;stroke-width:1px;stroke-linecap:butt;stroke-linejoin:miter;stroke-opacity:1;fill-opacity:1"
       d="m 152.98657,633.45487 -0.17678,34.73662 c 0,0 -0.61872,2.38648 -1.32583,2.47487 -0.7071,0.0884 11.04855,0 11.04855,0 0,0 -1.14905,-0.61872 -1.23744,-2.2981 -0.0884,-1.67937 -0.0884,-29.16815 -0.0884,-29.16815 0,0 1.06066,-7.15946 5.74524,-6.98268 4.68459,0.17678 10.96016,3.71231 10.87177,10.25305 -0.0884,6.54074 -5.74524,12.02081 -9.45755,11.93243 -3.71231,-0.0884 -4.24264,-1.23744 -4.24264,-1.23744 l 2.38648,4.06586 c 0,0 2.12132,0.26517 3.97748,0.26517 1.85615,0 16.44023,-1.23744 16.35184,-13.96536 -0.0884,-12.72792 -9.19239,-14.4073 -14.76085,-14.76085 -5.56847,-0.35356 -10.87177,3.35875 -10.87177,3.35875 l 0,-3.18198 c 0,0 -1.41421,1.06066 -3.53553,0.97227 -2.12132,-0.0884 -6.54074,-0.0884 -6.54074,-0.0884 0.6487,1.19215 1.28884,2.39099 1.85617,3.62394 z"
       id="path4149"
       inkscape:connector-curvature="0"
       sodipodi:nodetypes="ccccscsssccsssccscc" />
    <path
       style="fill:#221e20;fill-opacity:1;fill-rule:evenodd;stroke:none;stroke-width:1px;stroke-linecap:butt;stroke-linejoin:miter;stroke-opacity:1"
       d="m 208.22939,628.59397 c -11.84404,0.26517 -17.32326,7.3366 -17.14649,14.84961 0.17678,7.51301 7.15853,14.93608 17.85352,14.49414 10.69499,-0.44194 17.06254,-7.24093 16.9707,-16.79297 -0.0884,-9.19239 -10.87182,-12.46238 -17.67773,-12.55078 z m -0.0781,4.05469 c 4.85564,0.38065 8.65687,5.42395 8.82813,9.99805 0.1191,3.18098 -0.88339,9.63557 -4.5957,11.22656 -3.71231,1.59099 -7.58413,0.43155 -10.25391,-4.68555 -1.06066,-2.03294 -1.76758,-5.21484 -1.76758,-5.21484 -0.26517,-5.21491 1.50334,-10.78414 6.80664,-11.31446 0.33146,-0.0331 0.65871,-0.0351 0.98242,-0.01 z"
       id="path4151"
       inkscape:connector-curvature="0"
       sodipodi:nodetypes="csssccssscccc" />
    <path
       style="fill:#221e20;fill-opacity:1;fill-rule:evenodd;stroke:none;stroke-width:1px;stroke-linecap:butt;stroke-linejoin:miter;stroke-opacity:1"
       d="m 280.26691,628.408 c -11.84404,0.26517 -17.32326,7.3366 -17.14649,14.84961 0.17678,7.51301 7.15853,14.93608 17.85352,14.49414 10.69499,-0.44194 17.06254,-7.24093 16.9707,-16.79297 -0.0884,-9.19239 -10.87182,-12.46238 -17.67773,-12.55078 z m -0.0781,4.05469 c 4.85564,0.38065 8.65687,5.42395 8.82813,9.99805 0.1191,3.18098 -0.88339,9.63557 -4.5957,11.22656 -3.71231,1.59099 -7.58413,0.43155 -10.25391,-4.68555 -1.06066,-2.03294 -1.76758,-5.21484 -1.76758,-5.21484 -0.26517,-5.21491 1.50334,-10.78414 6.80664,-11.31446 0.33146,-0.0331 0.65871,-0.0351 0.98242,-0.01 z"
       id="path4151-3"
       inkscape:connector-curvature="0"
       sodipodi:nodetypes="csssccssscccc" />
    <path
       style="fill:#221e20;fill-rule:evenodd;stroke:none;stroke-width:1px;stroke-linecap:butt;stroke-linejoin:miter;stroke-opacity:1;fill-opacity:1"
       d="m 229.61926,616.04236 c 3.75692,0.0647 8.64069,0.28304 10.29502,-0.59283 -0.0277,2.47503 -0.0161,37.77216 -0.0161,37.77216 0,0 0.31153,2.47818 1.47671,3.92125 -2.05357,-0.0257 -8.47985,-0.0766 -11.15654,-0.0723 0,0 1.08027,-0.89997 1.25705,-2.40257 0.17677,-1.5026 -0.17678,-33.05724 -0.17678,-35.17856 0,-2.12132 -1.67938,-3.44715 -1.67938,-3.44715 z"
       id="path4172"
       inkscape:connector-curvature="0"
       sodipodi:nodetypes="cccccssc" />
    <path
       style="fill:#221e20;fill-opacity:1;fill-rule:evenodd;stroke:none;stroke-width:1px;stroke-linecap:butt;stroke-linejoin:miter;stroke-opacity:1"
       d="m 246.77829,615.85298 c 3.75692,0.0647 8.64069,0.28304 10.29502,-0.59283 -0.0277,2.47503 -0.0161,37.77216 -0.0161,37.77216 0,0 0.31153,2.47818 1.47671,3.92125 -2.05357,-0.0257 -8.47985,-0.0766 -11.15654,-0.0723 0,0 1.08027,-0.89997 1.25705,-2.40257 0.17677,-1.5026 -0.17678,-33.05724 -0.17678,-35.17856 0,-2.12132 -1.67938,-3.44715 -1.67938,-3.44715 z"
       id="path4172-6"
       inkscape:connector-curvature="0"
       sodipodi:nodetypes="cccccssc" />
  </g>
</svg>
