<?xml version="1.0" encoding="UTF-8" standalone="no"?>
<!-- Created with Inkscape (http://www.inkscape.org/) -->

<svg
   xmlns:dc="http://purl.org/dc/elements/1.1/"
   xmlns:cc="http://creativecommons.org/ns#"
   xmlns:rdf="http://www.w3.org/1999/02/22-rdf-syntax-ns#"
   xmlns:svg="http://www.w3.org/2000/svg"
   xmlns="http://www.w3.org/2000/svg"
   xmlns:sodipodi="http://sodipodi.sourceforge.net/DTD/sodipodi-0.dtd"
   xmlns:inkscape="http://www.inkscape.org/namespaces/inkscape"
   id="svg2"
   version="1.1"
   inkscape:version="0.91 r13725"
   width="52.211113mm"
   height="52.211113mm"
   xml:space="preserve"
   sodipodi:docname="catalogIcon-library.svg"><sodipodi:namedview
     pagecolor="#ffffff"
     bordercolor="#666666"
     borderopacity="1"
     objecttolerance="10"
     gridtolerance="10"
     guidetolerance="10"
     inkscape:pageopacity="0"
     inkscape:pageshadow="2"
     inkscape:window-width="1366"
     inkscape:window-height="768"
     id="namedview4"
     showgrid="false"
     inkscape:zoom="2"
     inkscape:cx="71.563125"
     inkscape:cy="55.962135"
     inkscape:window-x="0"
     inkscape:window-y="0"
     inkscape:window-maximized="0"
     inkscape:current-layer="g10"
     fit-margin-top="0"
     fit-margin-left="0"
     fit-margin-right="0"
     fit-margin-bottom="0"
     units="mm" /><metadata
     id="metadata8"><rdf:RDF><cc:Work
         rdf:about=""><dc:format>image/svg+xml</dc:format><dc:type
           rdf:resource="http://purl.org/dc/dcmitype/StillImage" /><dc:title></dc:title></cc:Work></rdf:RDF></metadata><defs
     id="defs6"><clipPath
       id="clipPath18"
       clipPathUnits="userSpaceOnUse"><path
         inkscape:connector-curvature="0"
         id="path20"
         d="M 0,2494.84 0,0 l 1804.34,0 0,2494.84 -1804.34,0 z" /></clipPath></defs><g
     transform="matrix(1.25,0,0,-1.25,0.323895,310.33655)"
     inkscape:label="ink_ext_XXXXXX"
     inkscape:groupmode="layer"
     id="g10"><g
       id="g3861"
       transform="matrix(1.5352278,0,0,1.5352278,-24.115894,-107.39782)"><path
         id="path3833"
         d="m 20.572897,168.46963 c 0.5648,1.32 11.7336,27.0664 12.2664,28.4 0.5336,1.3336 -0.5336,1.9336 -1,0.6664 -0.4664,-1.2664 -13.6664,-30.2 -14.4,-31.8664 -0.7328,-1.6672 -0.7328,-2.8 2.1336,-2.8 2.8664,0 39.5336,0 39.5336,0 l 0,-2.3336 9.3336,0 0,2.5336 c 0,0 38.666403,0 40.066403,0 1.4,0 2.6664,0.2664 1.4664,2.8 -1.2,2.5336 -13.600003,29.9336 -14.200003,31.4 -0.6,1.4664 -1.7328,0.8664 -1.2664,-0.2672 0.4664,-1.1336 12.000003,-27.4664 12.466403,-28.7336 0.4664,-1.2664 1.0664,-3.2664 -4.3336,-3.2664 -7.266403,0 -20.000003,5.0664 -25.533603,5.0664 -5.5336,0 -10.7304,-3.2664 -13.3648,-6.7328 -2.6344,2.4664 -5.968,6.7336 -13.1016,6.7336 -7.1336,0 -16.2,-5 -25.466399,-5 -3.466401,0 -5.918401,0.3176 -4.600001,3.4 z"
         style="fill:#218099"
         inkscape:connector-curvature="0" /><path
         id="path3835"
         d="m 102.9065,171.93603 c -1.0664,2.8664 -11.533603,30.3336 -11.533603,30.3336 0,0 -1,-0.3336 -3.0664,-0.3336 -6.7336,0 -14.3336,4.4664 -17.3336,4.4664 -3.1336,0 -7.232,-3.4664 -7.232,-3.4664 0,0 -4.768,3.4664 -7.0344,3.4664 -4.2,0 -9.6664,-4.4 -17.8664,-4.4 -1.8,0 -2.8664,0.2664 -2.8664,0.2664 0,0 -11.1336,-29.4664 -11.9336,-31.4664 -0.8,-2 -0.8008,-3.3336 2.200001,-3.3336 7.199999,0 20.199999,6.5336 24.266399,6.5336 7.4664,0 13.2344,-8.4 13.2344,-8.4 0,0 6.3656,8.3336 13.1656,8.3336 6.8,0 16,-6.6 24.466403,-6.6 2.6,0 2.6,1.7336 1.5336,4.6 z m -41.000003,0.6 c 0,0 -3.6,4.4 -10.6664,4.4 -7.3336,0 -18.2664,-6.4 -21.3336,-6.4 -1.7336,0 -2.733599,0.4 -2,2.8664 0.7336,2.4664 9.5336,26 9.5336,26 0,0 1.268,-0.1336 3.0664,-0.1336 8.2,0 11.2,3.8 16,3.8 3.2664,0 5,-1.8664 5.4,-3.2 l 0,-27.3328 z m 35.791998,-2 c -3.066398,0 -13.999998,6.4 -21.333598,6.4 -7.0664,0 -10.6664,-4.4 -10.6664,-4.4 l 0,27.3336 c 0.4,1.3336 2.1336,3.2 5.4,3.2 4.8,0 7.8,-3.8 16,-3.8 1.7984,0 3.0664,0.1336 3.0664,0.1336 0,0 8.799998,-23.5336 9.533598,-26 0.733605,-2.4672 -0.2664,-2.8672 -2,-2.8672 z"
         style="fill:#218099"
         inkscape:connector-curvature="0" /></g></g></svg>