<?xml version="1.0" encoding="UTF-8" standalone="no"?>
<!-- Created with Inkscape (http://www.inkscape.org/) -->

<svg
   xmlns:dc="http://purl.org/dc/elements/1.1/"
   xmlns:cc="http://creativecommons.org/ns#"
   xmlns:rdf="http://www.w3.org/1999/02/22-rdf-syntax-ns#"
   xmlns:svg="http://www.w3.org/2000/svg"
   xmlns="http://www.w3.org/2000/svg"
   xmlns:sodipodi="http://sodipodi.sourceforge.net/DTD/sodipodi-0.dtd"
   xmlns:inkscape="http://www.inkscape.org/namespaces/inkscape"
   id="svg2"
   version="1.1"
   inkscape:version="0.91 r13725"
   width="52.211113mm"
   height="52.211113mm"
   xml:space="preserve"
   sodipodi:docname="catalogIcon-condor-cluster.svg"><sodipodi:namedview
     pagecolor="#ffffff"
     bordercolor="#666666"
     borderopacity="1"
     objecttolerance="10"
     gridtolerance="10"
     guidetolerance="10"
     inkscape:pageopacity="0"
     inkscape:pageshadow="2"
     inkscape:window-width="1366"
     inkscape:window-height="768"
     id="namedview4"
     showgrid="false"
     inkscape:zoom="2"
     inkscape:cx="76.063125"
     inkscape:cy="51.462135"
     inkscape:window-x="0"
     inkscape:window-y="0"
     inkscape:window-maximized="0"
     inkscape:current-layer="g10"
     fit-margin-top="0"
     fit-margin-left="0"
     fit-margin-right="0"
     fit-margin-bottom="0"
     units="mm" /><metadata
     id="metadata8"><rdf:RDF><cc:Work
         rdf:about=""><dc:format>image/svg+xml</dc:format><dc:type
           rdf:resource="http://purl.org/dc/dcmitype/StillImage" /><dc:title></dc:title></cc:Work></rdf:RDF></metadata><defs
     id="defs6"><clipPath
       id="clipPath18"
       clipPathUnits="userSpaceOnUse"><path
         inkscape:connector-curvature="0"
         id="path20"
         d="M 0,2494.84 0,0 l 1804.34,0 0,2494.84 -1804.34,0 z" /></clipPath></defs><g
     transform="matrix(1.25,0,0,-1.25,0.323895,310.33655)"
     inkscape:label="ink_ext_XXXXXX"
     inkscape:groupmode="layer"
     id="g10"><g
       id="g3551"
       transform="matrix(0.94561021,0,0,0.94561021,1.2065545,11.181592)"><polygon
         id="polygon3358"
         points="228.888,399.172 236.342,399.172 236.342,373.633 228.888,373.633 228.888,379.667 216.286,379.667 216.286,366.797 208.832,366.797 208.832,399.172 216.286,399.172 216.286,386.303 228.888,386.303 "
         transform="matrix(0.8,0,0,-0.8,-166.94509,483.32145)" /><path
         id="path3360"
         d="m 54.05572,180.87426 c -0.3584,2.4456 -2.7936,4.3048 -5.5872,4.3048 -5.0496,0 -6.9488,-4.1328 -6.9488,-8.4376 0,-4.0984 1.8984,-8.2296 6.9488,-8.2296 3.4376,0 5.372,2.272 5.8016,5.5096 l 5.444,0 c -0.5728,-6.1296 -4.9784,-10.056 -11.2456,-10.056 -7.916,0 -12.571205,5.684 -12.571205,12.776 0,7.3016 4.655205,12.984 12.571205,12.984 5.6224,0 10.3504,-3.1688 11.0312,-8.8512 l -5.444,0 z"
         style="stroke:#000000;stroke-width:0.31999999"
         inkscape:connector-curvature="0" /><path
         id="path3362"
         d="m 79.52772,173.53506 c 0,-5.328 -3.096,-9.828 -8.7832,-9.828 -5.688,0 -8.7832,4.5 -8.7832,9.828 0,5.328 3.0952,9.8264 8.7832,9.8264 5.6872,0 8.7832,-4.4984 8.7832,-9.8264 z m -15.3,0 c 0,-3.9592 2.1608,-7.92 6.5168,-7.92 4.356,0 6.516,3.9608 6.516,7.92 0,3.9592 -2.16,7.9184 -6.516,7.9184 -4.356,0 -6.5168,-3.9592 -6.5168,-7.9184 z"
         inkscape:connector-curvature="0" /><path
         id="path3364"
         d="m 81.43652,182.82226 2.268,0 0,-3.2048 0.072,0 c 0.828,2.2328 3.312,3.744 5.94,3.744 5.22,0 6.804,-2.7344 6.804,-7.1624 l 0,-11.9512 -2.268,0 0,11.5904 c 0,3.2048 -1.044,5.616 -4.716,5.616 -3.6,0 -5.76,-2.736 -5.832,-6.3704 l 0,-10.8352 -2.268,0 0,18.5736 z"
         inkscape:connector-curvature="0" /><path
         id="path3366"
         d="m 138.52291,182.82226 2.0872,0 0,-4.356 0.072,0 c 1.152,2.9872 3.672,4.7512 7.02,4.608 l 0,-2.2672 c -4.1048,0.216 -6.9128,-2.808 -6.9128,-6.6608 l 0,-9.8984 -2.2672,0 0,18.5744 z"
         inkscape:connector-curvature="0" /><polygon
         id="polygon3368"
         points="261.524,369.67 268.582,366.797 259.649,366.797 "
         transform="matrix(0.8,0,0,-0.8,-166.94509,483.32145)" /><polyline
         id="polyline3370"
         points="228.887,366.797 228.887,373.631 241.634,373.631 241.634,399.172 249.457,399.172   249.457,373.655 262.27,373.655 262.27,366.797 "
         style="fill:#d31245"
         transform="matrix(0.8,0,0,-0.8,-166.94509,483.32145)" /><g
         id="g3372"
         transform="matrix(0.8,0,0,-0.8,-166.94509,483.32145)"><path
           id="path3374"
           d="m 398.004,357.18 c -8.137,2.316 -20.34,5.173 -29.723,12.912 -9.695,-8.49 -25.277,-12.171 -28.957,-12.921 -3.27,-0.667 -8.57,-1.451 -3.965,0.216 11.227,3.583 29.123,18.654 32.217,23.406 0.406,0.623 0.805,0.623 1.287,0.019 3.727,-4.673 13.576,-13.427 31.746,-23.468 1.944,-1.007 2.086,-1.5 -2.605,-0.164 z"
           inkscape:connector-curvature="0"
           style="fill:#d31245" /></g><g
         id="g3376"
         transform="matrix(0.8,0,0,-0.8,-166.94509,483.32145)"><path
           id="path3378"
           d="m 208.838,405.384 1.254,0 0,3.146 2.311,0 0,-3.146 1.254,0 0,7.854 -1.254,0 0,-3.652 -2.311,0 0,3.652 -1.254,0 0,-7.854 z"
           inkscape:connector-curvature="0"
           style="fill:#d31245" /><path
           id="path3380"
           d="m 217.407,405.295 1.188,0 0,1.189 -1.188,0 0,-1.189 z m 0,2.025 1.188,0 0,5.918 -1.188,0 0,-5.918 z"
           inkscape:connector-curvature="0"
           style="fill:#d31245" /><path
           id="path3382"
           d="m 223.457,413.744 c 0,0.363 0.33,0.705 0.858,0.705 0.616,0 1.001,-0.43 1.001,-1.111 l 0,-0.957 -0.021,0 c -0.221,0.518 -0.77,0.814 -1.342,0.814 -1.387,0 -1.771,-1.365 -1.771,-2.982 0,-1.298 0.197,-3.047 1.881,-3.047 0.693,0 1.188,0.451 1.299,0.88 l 0.021,0 0,-0.726 1.122,0 0,5.633 c 0,1.441 -0.616,2.311 -2.212,2.311 -1.76,0 -1.957,-1.035 -1.957,-1.52 l 1.121,0 z m 0.836,-1.496 c 0.925,0 1.023,-1.166 1.023,-2.101 0,-0.968 -0.121,-2.036 -0.945,-2.036 -0.858,0 -1.002,0.881 -1.002,1.98 0,1.013 0.045,2.157 0.924,2.157 z"
           inkscape:connector-curvature="0"
           style="fill:#d31245" /><path
           id="path3384"
           d="m 230.035,405.384 1.188,0 0,2.574 0.033,0.022 c 0.33,-0.506 0.848,-0.814 1.453,-0.814 0.901,0 1.474,0.406 1.474,1.605 l 0,4.467 -1.188,0 0,-4.059 c 0,-0.771 -0.23,-1.068 -0.824,-1.068 -0.484,0 -0.947,0.386 -0.947,1.156 l 0,3.971 -1.188,0 0,-7.854 z"
           inkscape:connector-curvature="0"
           style="fill:#d31245" /><path
           id="path3386"
           d="m 243.873,406.439 -1.869,0 0,-1.056 4.961,0 0,1.056 -1.837,0 0,6.799 -1.255,0 0,-6.799 z"
           inkscape:connector-curvature="0"
           style="fill:#d31245" /><path
           id="path3388"
           d="m 250.078,405.384 1.188,0 0,2.574 0.033,0.022 c 0.33,-0.506 0.848,-0.814 1.452,-0.814 0.901,0 1.474,0.406 1.474,1.605 l 0,4.467 -1.188,0 0,-4.059 c 0,-0.771 -0.231,-1.068 -0.825,-1.068 -0.484,0 -0.946,0.386 -0.946,1.156 l 0,3.971 -1.188,0 0,-7.854 z"
           inkscape:connector-curvature="0"
           style="fill:#d31245" /><path
           id="path3390"
           d="m 257.844,407.32 1.188,0 0,0.924 0.022,0 c 0.265,-0.66 0.704,-1.078 1.375,-1.078 0.132,0 0.21,0.021 0.286,0.044 l 0,1.21 c -0.088,-0.021 -0.297,-0.066 -0.495,-0.066 -0.539,0 -1.188,0.242 -1.188,1.343 l 0,3.542 -1.188,0 0,-5.919 z"
           inkscape:connector-curvature="0"
           style="fill:#d31245" /><path
           id="path3392"
           d="m 265.752,407.166 c 1.728,0 2.211,1.275 2.211,3.113 0,1.838 -0.561,3.113 -2.211,3.113 -1.639,0 -2.2,-1.275 -2.2,-3.113 0,-1.838 0.484,-3.113 2.2,-3.113 z m 0,5.347 c 0.869,0 1.023,-0.726 1.023,-2.233 0,-1.309 -0.154,-2.233 -1.023,-2.233 -0.857,0 -1.012,0.925 -1.012,2.233 0,1.507 0.155,2.233 1.012,2.233 z"
           inkscape:connector-curvature="0"
           style="fill:#d31245" /><path
           id="path3394"
           d="m 274.377,412.546 -0.033,0 c -0.297,0.528 -0.858,0.847 -1.519,0.847 -0.88,0 -1.474,-0.406 -1.474,-1.936 l 0,-4.137 1.188,0 0,4.246 c 0,0.66 0.297,0.881 0.803,0.881 0.506,0 0.969,-0.33 0.969,-0.99 l 0,-4.137 1.188,0 0,5.918 -1.121,0 0,-0.692 z"
           inkscape:connector-curvature="0"
           style="fill:#d31245" /><path
           id="path3396"
           d="m 280.305,413.744 c 0,0.363 0.33,0.705 0.858,0.705 0.616,0 1.001,-0.43 1.001,-1.111 l 0,-0.957 -0.021,0 c -0.221,0.518 -0.77,0.814 -1.342,0.814 -1.387,0 -1.771,-1.365 -1.771,-2.982 0,-1.298 0.197,-3.047 1.881,-3.047 0.693,0 1.188,0.451 1.299,0.88 l 0.021,0 0,-0.726 1.122,0 0,5.633 c 0,1.441 -0.616,2.311 -2.212,2.311 -1.76,0 -1.957,-1.035 -1.957,-1.52 l 1.121,0 z m 0.836,-1.496 c 0.925,0 1.023,-1.166 1.023,-2.101 0,-0.968 -0.121,-2.036 -0.945,-2.036 -0.858,0 -1.002,0.881 -1.002,1.98 0,1.013 0.045,2.157 0.924,2.157 z"
           inkscape:connector-curvature="0"
           style="fill:#d31245" /><path
           id="path3398"
           d="m 286.883,405.384 1.188,0 0,2.574 0.033,0.022 c 0.33,-0.506 0.847,-0.814 1.452,-0.814 0.902,0 1.475,0.406 1.475,1.605 l 0,4.467 -1.188,0 0,-4.059 c 0,-0.771 -0.231,-1.068 -0.825,-1.068 -0.484,0 -0.946,0.386 -0.946,1.156 l 0,3.971 -1.188,0 0,-7.854 z"
           inkscape:connector-curvature="0"
           style="fill:#d31245" /><path
           id="path3400"
           d="m 294.649,407.32 1.122,0 0,0.726 0.021,0 c 0.242,-0.528 0.683,-0.88 1.332,-0.88 1.354,0 1.902,1.155 1.902,3.19 0,2.486 -1.012,3.036 -1.826,3.036 -0.638,0 -1.121,-0.318 -1.342,-0.847 l -0.021,0 0,2.629 -1.188,0 0,-7.854 z m 2.134,5.127 c 0.683,0 0.99,-0.507 0.99,-2.146 0,-1.342 -0.176,-2.189 -1.001,-2.189 -0.813,0 -1.001,0.837 -1.001,2.102 0,1.419 0.176,2.233 1.012,2.233 z"
           inkscape:connector-curvature="0"
           style="fill:#d31245" /><path
           id="path3402"
           d="m 305.44,412.546 -0.033,0 c -0.297,0.528 -0.858,0.847 -1.519,0.847 -0.88,0 -1.474,-0.406 -1.474,-1.936 l 0,-4.137 1.188,0 0,4.246 c 0,0.66 0.297,0.881 0.803,0.881 0.506,0 0.969,-0.33 0.969,-0.99 l 0,-4.137 1.188,0 0,5.918 -1.122,0 0,-0.692 z"
           inkscape:connector-curvature="0"
           style="fill:#d31245" /><path
           id="path3404"
           d="m 309.652,407.32 0.814,0 0,-1.684 1.188,0 0,1.684 0.968,0 0,0.88 -0.968,0 0,3.531 c 0,0.462 0.132,0.627 0.539,0.627 0.176,0 0.319,-0.011 0.429,-0.032 l 0,0.879 c -0.253,0.066 -0.583,0.1 -0.957,0.1 -0.803,0 -1.199,-0.22 -1.199,-1.43 l 0,-3.675 -0.814,0 0,-0.88 z"
           inkscape:connector-curvature="0"
           style="fill:#d31245" /><path
           id="path3406"
           d="m 325.736,410.422 0,0.166 c 0,1.419 -0.572,2.805 -2.42,2.805 -1.98,0 -2.598,-1.275 -2.598,-4.082 0,-2.805 0.617,-4.081 2.607,-4.081 2.234,0 2.365,1.65 2.365,2.464 l 0,0.144 -1.254,0 0,-0.132 c 0,-0.727 -0.219,-1.562 -1.121,-1.529 -0.924,0 -1.344,0.572 -1.344,3.103 0,2.531 0.42,3.169 1.344,3.169 1.045,0 1.166,-1.167 1.166,-1.893 l 0,-0.133 1.255,0 z"
           inkscape:connector-curvature="0"
           style="fill:#d31245" /><path
           id="path3408"
           d="m 330.982,407.166 c 1.727,0 2.211,1.275 2.211,3.113 0,1.838 -0.561,3.113 -2.211,3.113 -1.639,0 -2.201,-1.275 -2.201,-3.113 0,-1.838 0.485,-3.113 2.201,-3.113 z m 0,5.347 c 0.869,0 1.023,-0.726 1.023,-2.233 0,-1.309 -0.154,-2.233 -1.023,-2.233 -0.857,0 -1.012,0.925 -1.012,2.233 10e-4,1.507 0.155,2.233 1.012,2.233 z"
           inkscape:connector-curvature="0"
           style="fill:#d31245" /><path
           id="path3410"
           d="m 336.637,407.32 1.121,0 0,0.693 0.033,0 c 0.297,-0.529 0.859,-0.848 1.42,-0.848 0.848,0 1.199,0.406 1.375,0.902 0.342,-0.572 0.781,-0.902 1.496,-0.902 0.836,0 1.441,0.429 1.441,1.573 l 0,4.499 -1.188,0 0,-4.059 c 0,-0.771 -0.232,-1.068 -0.717,-1.068 -0.482,0 -0.945,0.386 -0.945,1.156 l 0,3.971 -1.188,0 0,-4.059 c 0,-0.771 -0.232,-1.068 -0.727,-1.068 -0.473,0 -0.936,0.386 -0.936,1.156 l 0,3.971 -1.188,0 0,-5.917 z"
           inkscape:connector-curvature="0"
           style="fill:#d31245" /><path
           id="path3412"
           d="m 347.195,407.32 1.123,0 0,0.726 0.021,0 c 0.242,-0.528 0.682,-0.88 1.332,-0.88 1.352,0 1.902,1.155 1.902,3.19 0,2.486 -1.012,3.036 -1.826,3.036 -0.639,0 -1.123,-0.318 -1.342,-0.847 l -0.021,0 0,2.629 -1.189,0 0,-7.854 z m 2.135,5.127 c 0.682,0 0.99,-0.507 0.99,-2.146 0,-1.342 -0.176,-2.189 -1.002,-2.189 -0.814,0 -1,0.837 -1,2.102 0,1.419 0.176,2.233 1.012,2.233 z"
           inkscape:connector-curvature="0"
           style="fill:#d31245" /><path
           id="path3414"
           d="m 357.986,412.546 -0.033,0 c -0.297,0.528 -0.857,0.847 -1.518,0.847 -0.881,0 -1.475,-0.406 -1.475,-1.936 l 0,-4.137 1.189,0 0,4.246 c 0,0.66 0.297,0.881 0.803,0.881 0.506,0 0.967,-0.33 0.967,-0.99 l 0,-4.137 1.189,0 0,5.918 -1.123,0 0,-0.692 z"
           inkscape:connector-curvature="0"
           style="fill:#d31245" /><path
           id="path3416"
           d="m 362.199,407.32 0.814,0 0,-1.684 1.188,0 0,1.684 0.969,0 0,0.88 -0.969,0 0,3.531 c 0,0.462 0.133,0.627 0.539,0.627 0.178,0 0.32,-0.011 0.43,-0.032 l 0,0.879 c -0.252,0.066 -0.582,0.1 -0.957,0.1 -0.803,0 -1.199,-0.22 -1.199,-1.43 l 0,-3.675 -0.814,0 0,-0.88 z"
           inkscape:connector-curvature="0"
           style="fill:#d31245" /><path
           id="path3418"
           d="m 368.316,405.295 1.188,0 0,1.189 -1.188,0 0,-1.189 z m 0,2.025 1.188,0 0,5.918 -1.188,0 0,-5.918 z"
           inkscape:connector-curvature="0"
           style="fill:#d31245" /><path
           id="path3420"
           d="m 373.178,407.32 1.123,0 0,0.693 0.033,0 c 0.297,-0.529 0.857,-0.848 1.518,-0.848 0.902,0 1.475,0.406 1.475,1.605 l 0,4.467 -1.189,0 0,-4.059 c 0,-0.771 -0.23,-1.068 -0.824,-1.068 -0.484,0 -0.945,0.386 -0.945,1.156 l 0,3.971 -1.189,0 0,-5.917 z"
           inkscape:connector-curvature="0"
           style="fill:#d31245" /><path
           id="path3422"
           d="m 382.133,413.744 c 0,0.363 0.328,0.705 0.857,0.705 0.615,0 1,-0.43 1,-1.111 l 0,-0.957 -0.021,0 c -0.219,0.518 -0.77,0.814 -1.342,0.814 -1.387,0 -1.771,-1.365 -1.771,-2.982 0,-1.298 0.197,-3.047 1.881,-3.047 0.693,0 1.189,0.451 1.299,0.88 l 0.021,0 0,-0.726 1.123,0 0,5.633 c 0,1.441 -0.617,2.311 -2.211,2.311 -1.762,0 -1.959,-1.035 -1.959,-1.52 l 1.123,0 z m 0.836,-1.496 c 0.924,0 1.021,-1.166 1.021,-2.101 0,-0.968 -0.121,-2.036 -0.945,-2.036 -0.857,0 -1.002,0.881 -1.002,1.98 0,1.013 0.045,2.157 0.926,2.157 z"
           inkscape:connector-curvature="0"
           style="fill:#d31245" /></g><path
         id="path3424"
         d="m 133.03731,181.19906 -1.5376,-1.4968 c 1.4968,-1.5232 2.248,-3.8424 2.248,-6.1672 0,-3.9592 -2.1592,-7.92 -6.516,-7.92 -4.3568,0 -6.516,3.9608 -6.516,7.92 0,2.6152 0.9488,5.2216 2.8424,6.696 l -1.5704,1.4496 c -2.3176,-1.7832 -3.5408,-4.8 -3.5408,-8.1464 0,-5.328 3.0968,-9.828 8.784,-9.828 5.6872,0 8.784,4.5 8.784,9.828 8e-4,3.064 -1.028,5.8472 -2.9776,7.6648 z"
         inkscape:connector-curvature="0" /><path
         id="path3426"
         d="m 113.43811,188.65106 0,-9.356 -0.072,0 c -0.972,2.664 -3.672,4.0672 -6.444,4.0672 -5.6504,0 -8.35039,-4.5704 -8.35039,-9.8264 0,-5.256 2.69999,-9.828 8.35039,-9.828 2.7,0 5.652,1.656 6.624,4.068 l 0.072,0 0,-3.528 2.088,0 0,22.7184 -2.268,1.6848 z m -6.5152,-23.036 c -4.3192,0 -6.0832,4.068 -6.0832,7.92 0,3.852 1.764,7.9184 6.0832,7.9184 4.824,0 6.516,-4.0672 6.516,-7.9184 0,-3.8512 -1.692,-7.92 -6.516,-7.92 z"
         inkscape:connector-curvature="0" /></g></g></svg>